<svg 
	xmlns="http://www.w3.org/2000/svg" 
	width="23" 
	height="23" 
	viewBox="0 0 23 23" 
	stroke-width="2" 
	stroke="currentColor" 
	fill="none" 
	stroke-linecap="round" 
	stroke-linejoin="round">
	
	<path d="M12 12m-9 0a9 9 0 1 0 18 0a9 9 0 1 0 -18 0"></path>
	<path d="M12 21a9 9 0 1 1 0 -18a9 9 0 0 1 0 18z"></path>
	<path d="M15 10h-.01"></path>
	<path d="M10 14v2a2 2 0 1 0 4 0v-2m1.5 0h-7"></path>
	<path d="M7 10c.5 -1 2.5 -1 3 0"></path>
	<style>
		path {stroke: #000;}
		@media (prefers-color-scheme: dark) {
			path {stroke: #fff;}
		}
	</style>
</svg>
